<svg width="500" height="500" viewBox="0 0 500 500" fill="none" xmlns="http://www.w3.org/2000/svg">
<g id="R">
<rect id="Rectangle 1" width="500" height="500" fill="black"/>
<path id="R_2" d="M125.135 74H252.635C297.301 74 331.135 84.6666 354.135 106C377.468 127.333 389.135 154.833 389.135 188.5C389.135 212.5 383.135 233.667 371.135 252C359.468 270 342.135 283.333 319.135 292L410.135 424H310.635L235.635 303H209.635V424H125.135V74ZM246.635 146H209.635V237H246.635C263.635 237 276.968 233 286.635 225C296.301 217 301.135 205.833 301.135 191.5C301.135 176.833 296.301 165.667 286.635 158C276.968 150 263.635 146 246.635 146Z" fill="white"/>
</g>
</svg>
